# xmcd
#
# Track frame offsets:
#  150
#  17202
#  36385
#  54710
#  72160
#  86237
#  103657
#  119730
#  136572
#  152810
#  173620
#  188632
#
# Disc length: 2778 seconds
#
# Revision: 6
# Processed by: cddbd v1.5.1PL2 Copyright (c) Steve Scherf et al.
# Submitted via: Collectorz.com_Music_Collector 6.11
#
DISCID=a30ad80c
DTITLE=Vince Gill - Let's Make Sure We Kiss Goodbye
DYEAR=2000
DGENRE=Country
TTITLE0=One
TTITLE1=Feels Like Love
TTITLE2=Let's Make Sure We Kiss Goodbye
TTITLE3=For The Last Time
TTITLE4=When I Look Into Your Heart
TTITLE5=Shoot Straight From Your Heart
TTITLE6=The Luckiest Guy In The World
TTITLE7=Little Things
TTITLE8=Baby Please Don't Go
TTITLE9=Look What Love's Revealing
TTITLE10=That Friend Of Mine
TTITLE11=Hey God
EXTD=
EXTT0=
EXTT1=
EXTT2=
EXTT3=
EXTT4=
EXTT5=
EXTT6=
EXTT7=
EXTT8=
EXTT9=
EXTT10=
EXTT11=
PLAYORDER=
